# xmcd
#
# Track frame offsets:
#	150
#	16197
#	26257
#	52497
#	64705
#	78387
#	94302
#	107315
#	123262
#	134435
#	159165
#	172897
#	212235
#
# Disc length: 2983 seconds
#
# Revision: 1
# Processed by: cddbd v1.5.1PL0 Copyright (c) Steve Scherf et al.
# Submitted via: EasyCDDAExtractor 7.0.6.1
#
DISCID=a20ba50d
DTITLE=Brenda Lee - Brenda Lee  Greatest Hits
DYEAR=1900
DGENRE=Country
TTITLE0=Coming On Strong
TTITLE1=I'm Sorry
TTITLE2=Jambalaya-Is It True- Whole World Is falling Down-Sweet Nothings-End O
TTITLE2=f The World-All Alone Am I
TTITLE3=How Much Love
TTITLE4=Your Mama Don't Dance
TTITLE5=You're The One That I Want
TTITLE6=When You're Smilling-In Pictures-Happy Face-Smile-Baby Face
TTITLE7=Johnny One Time
TTITLE8=That's All You Gotta Do
TTITLE9=Dom Dum-Fool No1-Two Many Rivers-Jambalaya
TTITLE10=You Don't Have To Say You Love Me
TTITLE11=Sould To Soul-Old Landmark-Some Glad Morning-Operator-Saved
TTITLE12=Silver Threads And Golden Reedles
EXTD=
EXTT0=
EXTT1=
EXTT2=
EXTT3=
EXTT4=
EXTT5=
EXTT6=
EXTT7=
EXTT8=
EXTT9=
EXTT10=
EXTT11=
EXTT12=
PLAYORDER=
